<svg width="933" height="892" viewBox="0 0 933 892" fill="none" xmlns="http://www.w3.org/2000/svg">
<g filter="url(#filter0_d_1517_1648)">
<circle cx="473.8" cy="418" r="200" fill="url(#paint0_radial_1517_1648)"/>
<circle cx="473.8" cy="418" r="199.5" stroke="#4A4A4A"/>
</g>
<g filter="url(#filter1_d_1517_1648)">
<path d="M468.8 153.5C616.535 153.5 736.3 273.487 736.3 421.5C736.3 569.513 616.535 689.5 468.8 689.5C321.065 689.5 201.3 569.513 201.3 421.5C201.3 273.487 321.065 153.5 468.8 153.5Z" stroke="#4A4A4A" shape-rendering="crispEdges"/>
</g>
<path d="M447.3 149.5C612.98 149.5 747.3 285.376 747.3 453C747.3 620.624 612.98 756.5 447.3 756.5C281.62 756.5 147.3 620.624 147.3 453C147.3 285.376 281.62 149.5 447.3 149.5Z" stroke="#4A4A4A"/>
<path d="M641.092 555.029C583.92 595.624 509.005 607.17 440.837 579.047C333.811 534.893 283.944 409.671 329.455 299.356C344.089 263.883 366.804 234.271 394.448 211.887C348.425 234.161 310.048 272.872 288.964 323.979C243.585 433.974 295.494 559.736 404.907 604.874C488.572 639.391 581.635 616.77 641.092 555.029Z" fill="#333333"/>
<path d="M648.932 549.21C597.295 570.945 537.759 572.962 482.384 550.117C370.927 504.135 318.536 374.839 365.366 261.326C372.426 244.213 381.34 228.436 391.767 214.138C365.52 236.203 343.948 264.916 329.862 299.058C284.351 409.374 334.218 534.596 441.245 578.75C512.408 608.109 590.925 594.234 648.932 549.21Z" fill="#4A4A4A"/>
<path d="M537.382 381.995L464.871 375.448L530.87 351.354L530.628 288.118L566.863 438.109L537.382 381.995ZM577.809 381.484L567.277 439.624L530.659 288.117L567.995 340.224L634.821 351.672L577.809 381.484Z" fill="#333333"/>
<mask id="path-8-outside-1_1517_1648" maskUnits="userSpaceOnUse" x="443.422" y="272.084" width="212.155" height="182.754" fill="black">
<rect fill="white" x="443.422" y="272.084" width="212.155" height="182.754"/>
<path d="M536.854 378.266L464.073 377.005L530.43 352.526L529.101 288.511L568.198 439.473L536.854 378.266ZM567.748 373.185L568.222 439.447L529.129 288.483L561.323 347.446L634.21 349.133L567.748 373.185Z"/>
</mask>
<path d="M536.854 378.266L464.073 377.005L530.43 352.526L529.101 288.511L568.198 439.473L536.854 378.266ZM567.748 373.185L568.222 439.447L529.129 288.483L561.323 347.446L634.21 349.133L567.748 373.185Z" fill="#4A4A4A"/>
<path d="M536.913 379.25C536.874 378.594 536.834 377.938 536.795 377.282C529.495 377.172 522.195 377.062 514.895 376.952C497.938 376.696 480.981 376.441 464.024 376.185L464.426 377.775C486.522 369.564 508.617 361.354 530.712 353.143C530.929 353.063 531.112 352.794 531.108 352.563C530.614 331.222 530.12 309.881 529.626 288.54L528.593 288.599C541.743 338.899 554.894 389.2 568.044 439.5L568.339 439.414C561.203 425.555 554.067 411.697 546.932 397.838C543.573 391.314 540.213 384.79 536.854 378.266C536.854 378.266 536.854 378.266 536.854 378.266C540.183 384.803 543.512 391.339 546.842 397.876C553.913 411.762 560.985 425.647 568.057 439.533C568.142 439.701 568.398 439.626 568.351 439.447C555.438 389.106 542.524 338.765 529.61 288.423C529.457 287.832 528.564 287.883 528.577 288.482C528.968 309.818 529.36 331.154 529.752 352.489L530.147 351.91C508.005 360.019 485.863 368.127 463.72 376.236C462.833 376.563 463.148 377.81 464.123 377.826C481.085 378.158 498.046 378.489 515.008 378.821C522.31 378.964 529.612 379.107 536.913 379.25ZM536.795 377.282L536.913 379.25L536.854 378.266C536.706 377.976 537.118 377.288 536.795 377.282ZM568.764 373.253C568.087 373.208 567.41 373.162 566.733 373.116C566.783 380.196 566.834 387.276 566.884 394.355C566.992 409.363 567.099 424.371 567.206 439.378L569.206 439.277C556.175 388.956 543.144 338.634 530.113 288.313L528.238 288.89C538.97 308.544 549.701 328.198 560.433 347.853C560.596 348.151 561.039 348.422 561.376 348.43C585.672 348.992 609.968 349.554 634.264 350.116L633.793 348.207C618.315 353.808 602.838 359.41 587.36 365.011C580.684 367.427 574.007 369.843 567.331 372.259C567.609 372.876 567.887 373.493 568.166 374.11C574.842 371.694 581.519 369.278 588.195 366.862C603.673 361.26 619.15 355.659 634.628 350.058C635.695 349.672 635.326 348.176 634.157 348.149C609.861 347.586 585.565 347.024 561.27 346.462L562.213 347.039C551.482 327.385 540.75 307.73 530.019 288.076C529.442 287.021 527.849 287.511 528.144 288.653C541.176 338.974 554.207 389.295 567.238 439.616C567.534 440.76 569.246 440.673 569.238 439.515C569.13 424.507 569.023 409.5 568.916 394.492C568.865 387.412 568.815 380.333 568.764 373.253ZM566.733 373.116L568.764 373.253L568.166 374.11L567.331 372.259C567.008 372.376 566.73 372.775 566.733 373.116Z" fill="#333333" mask="url(#path-8-outside-1_1517_1648)"/>
<defs>
<filter id="filter0_d_1517_1648" x="4.57764e-05" y="-55.8" width="947.6" height="947.6" filterUnits="userSpaceOnUse" color-interpolation-filters="sRGB">
<feFlood flood-opacity="0" result="BackgroundImageFix"/>
<feColorMatrix in="SourceAlpha" type="matrix" values="0 0 0 0 0 0 0 0 0 0 0 0 0 0 0 0 0 0 127 0" result="hardAlpha"/>
<feMorphology radius="114" operator="dilate" in="SourceAlpha" result="effect1_dropShadow_1517_1648"/>
<feOffset/>
<feGaussianBlur stdDeviation="79.9"/>
<feComposite in2="hardAlpha" operator="out"/>
<feColorMatrix type="matrix" values="0 0 0 0 0.144231 0 0 0 0 0.144231 0 0 0 0 0.144231 0 0 0 1 0"/>
<feBlend mode="normal" in2="BackgroundImageFix" result="effect1_dropShadow_1517_1648"/>
<feBlend mode="normal" in="SourceGraphic" in2="effect1_dropShadow_1517_1648" result="shape"/>
</filter>
<filter id="filter1_d_1517_1648" x="141.7" y="93.9" width="654.2" height="655.2" filterUnits="userSpaceOnUse" color-interpolation-filters="sRGB">
<feFlood flood-opacity="0" result="BackgroundImageFix"/>
<feColorMatrix in="SourceAlpha" type="matrix" values="0 0 0 0 0 0 0 0 0 0 0 0 0 0 0 0 0 0 127 0" result="hardAlpha"/>
<feMorphology radius="13" operator="erode" in="SourceAlpha" result="effect1_dropShadow_1517_1648"/>
<feOffset/>
<feGaussianBlur stdDeviation="36.05"/>
<feComposite in2="hardAlpha" operator="out"/>
<feColorMatrix type="matrix" values="0 0 0 0 0.839216 0 0 0 0 0.839216 0 0 0 0 0.839216 0 0 0 1 0"/>
<feBlend mode="normal" in2="BackgroundImageFix" result="effect1_dropShadow_1517_1648"/>
<feBlend mode="normal" in="SourceGraphic" in2="effect1_dropShadow_1517_1648" result="shape"/>
</filter>
<radialGradient id="paint0_radial_1517_1648" cx="0" cy="0" r="1" gradientUnits="userSpaceOnUse" gradientTransform="translate(473.8 418) rotate(90) scale(256.5)">
<stop stop-color="#4A4A4A"/>
<stop offset="1" stop-color="#1E1E1E"/>
</radialGradient>
</defs>
</svg>
