<svg width="600" height="600" viewBox="0 0 600 600" fill="none" xmlns="http://www.w3.org/2000/svg">
<path d="M454.168 200.643L439.129 200.515L464.74 210.756L340.474 303.671L468.6 382.841L458.869 383.235L433.062 410.944L223.356 411.621L194.191 381.86H242.004V198.844L198.023 198.471L219.647 174.212H438.824L454.168 200.643ZM321.497 381.86H416.792L321.497 322.6V381.86ZM321.497 282.77L434.539 200.476L321.497 199.518V282.77Z" fill="#9D9898"/>
<path d="M459.976 204.851L459.981 204.852L459.978 204.854L460.507 205.452L459.181 205.448L321.992 307.816L454.969 389.582H455.181L427.647 425.98L224.836 426.827L196.631 389.582H404.027L309.708 330.928V389.579H226.773V204.933L182.716 204.836L204.429 180.221H438.157L459.976 204.851ZM309.708 286.349L420.935 205.364L309.708 205.118V286.349Z" fill="#BCBCBC"/>
<path d="M337.978 113.085C400.871 128.6 449.243 172.463 472.708 227.579C451.666 182.739 410.864 147.253 358.429 134.318C267.115 111.793 175.109 166.184 152.928 255.805C130.747 345.426 186.791 436.338 278.106 458.863C369.42 481.389 461.426 426.997 483.607 337.377C486.368 326.218 487.916 315.039 488.335 303.975C488.333 319.499 486.469 335.267 482.573 351.007C456.518 456.282 349.537 520.444 243.624 494.318C137.712 468.191 72.975 361.67 99.0297 256.396C125.085 151.121 232.066 86.9587 337.978 113.085Z" fill="#AF3434"/>
<path d="M337.978 113.085L338.579 110.658V110.658L337.978 113.085ZM472.708 227.579L470.444 228.642C471.023 229.876 472.484 230.418 473.729 229.861C474.973 229.304 475.543 227.853 475.009 226.599L472.708 227.579ZM358.429 134.318L359.029 131.892V131.892L358.429 134.318ZM152.928 255.805L150.501 255.206V255.206L152.928 255.805ZM278.106 458.863L277.505 461.29V461.29L278.106 458.863ZM483.607 337.377L486.034 337.976V337.976L483.607 337.377ZM488.335 303.975L490.835 303.974C490.835 302.612 489.745 301.501 488.382 301.476C487.02 301.451 485.888 302.521 485.836 303.882L488.335 303.975ZM482.573 351.007L485 351.606V351.606L482.573 351.007ZM243.624 494.318L243.024 496.745V496.745L243.624 494.318ZM99.0297 256.396L96.6025 255.797V255.797L99.0297 256.396ZM337.978 113.085L337.378 115.512C399.478 130.831 447.238 174.138 470.408 228.559L472.708 227.579L475.009 226.599C451.248 170.788 402.263 126.368 338.579 110.658L337.978 113.085ZM472.708 227.579L474.972 226.517C453.619 181.014 412.218 145.012 359.029 131.892L358.429 134.318L357.829 136.745C409.51 149.494 449.713 184.463 470.444 228.642L472.708 227.579ZM358.429 134.318L359.029 131.892C266.417 109.046 173.024 164.203 150.501 255.206L152.928 255.805L155.355 256.404C177.194 168.166 267.812 114.54 357.829 136.745L358.429 134.318ZM152.928 255.805L150.501 255.206C127.978 346.209 184.893 438.445 277.505 461.29L278.106 458.863L278.706 456.436C188.69 434.231 133.517 344.642 155.355 256.404L152.928 255.805ZM278.106 458.863L277.505 461.29C370.117 484.136 463.511 428.979 486.034 337.976L483.607 337.377L481.179 336.778C459.341 425.016 368.722 478.642 278.706 456.436L278.106 458.863ZM483.607 337.377L486.034 337.976C488.837 326.65 490.408 315.302 490.834 304.068L488.335 303.975L485.836 303.882C485.424 314.777 483.9 325.786 481.179 336.778L483.607 337.377ZM488.335 303.975L485.835 303.976C485.833 319.299 483.992 334.866 480.146 350.408L482.573 351.007L485 351.606C488.945 335.668 490.833 319.698 490.835 303.974L488.335 303.975ZM482.573 351.007L480.146 350.408C454.426 454.329 348.81 517.69 244.225 491.891L243.624 494.318L243.024 496.745C350.264 523.199 458.61 458.234 485 351.606L482.573 351.007ZM243.624 494.318L244.225 491.891C139.64 466.092 75.7372 360.915 101.457 256.995L99.0297 256.396L96.6025 255.797C70.2128 362.425 135.784 470.291 243.024 496.745L243.624 494.318ZM99.0297 256.396L101.457 256.995C127.177 153.074 232.792 89.7129 337.378 115.512L337.978 113.085L338.579 110.658C231.339 84.2045 122.992 149.169 96.6025 255.797L99.0297 256.396Z" fill="#AF3434"/>
<path d="M279.407 117.989C371.249 98.8861 462.361 163.348 482.91 261.969C503.458 360.589 445.662 456.022 353.819 475.125C261.976 494.228 170.866 429.767 150.317 331.147C129.769 232.526 187.564 137.092 279.407 117.989ZM298.062 140.746C215.384 157.943 162.753 240.966 180.508 326.183C198.264 411.4 279.683 466.542 362.361 449.345C445.039 432.148 497.67 349.125 479.914 263.907C462.158 178.691 380.74 123.55 298.062 140.746Z" fill="#BCBCBC"/>
<path d="M262.069 117.87C324.366 104.912 385.891 124.964 428.581 166.136C390.017 131.637 335.903 115.275 281.069 126.68C189.772 145.67 131.05 234.442 149.909 324.958C168.769 415.474 258.069 473.458 349.367 454.468C437.575 436.121 495.372 352.635 482.174 265.371C501.167 364.861 437.18 461.487 337.963 482.123C237.705 502.977 139.439 438.341 118.481 337.755C97.5236 237.169 161.81 138.723 262.069 117.87Z" fill="#BCBCBC"/>
<path d="M497.233 283.136L488.352 316.133L488.202 315.17L473.871 281.482L432.289 274.278L471.582 263.532L474.48 227.138L474.475 227.11L474.482 227.119L474.482 227.11L474.486 227.125L493.545 258.9L531.61 268.663L497.233 283.136Z" fill="#9D9898"/>
<mask id="path-8-outside-1_1123_2610" maskUnits="userSpaceOnUse" x="423.319" y="222.144" width="116.546" height="98.9104" fill="black">
<rect fill="white" x="423.319" y="222.144" width="116.546" height="98.9104"/>
<path d="M491.819 277.873L488.911 316.016L488.915 316.038L488.911 316.027L488.909 316.049L488.902 316.004L473.746 279.309L431.755 275.135L471.271 264.184L473.579 227.283L473.576 227.271L473.579 227.277L473.579 227.262L473.585 227.289L489.344 262.748L531.375 267.173L491.819 277.873Z"/>
</mask>
<path d="M491.819 277.873L488.911 316.016L488.915 316.038L488.911 316.027L488.909 316.049L488.902 316.004L473.746 279.309L431.755 275.135L471.271 264.184L473.579 227.283L473.576 227.271L473.579 227.277L473.579 227.262L473.585 227.289L489.344 262.748L531.375 267.173L491.819 277.873Z" fill="#BCBCBC"/>
<path d="M492.826 278.024C492.155 277.923 491.483 277.822 490.812 277.721C490.431 282.945 490.049 288.169 489.668 293.392C489.121 300.889 488.574 308.386 488.027 315.883C488.023 315.925 488.029 316.045 488.036 316.086C488.037 316.094 488.038 316.101 488.039 316.109L489.755 315.827C489.754 315.823 489.753 315.819 489.751 315.815C489.43 314.857 488.136 314.896 488.029 315.867C488.028 315.874 488.028 315.881 488.027 315.888L489.784 315.979C489.782 315.964 489.779 315.949 489.777 315.934C489.77 315.893 489.736 315.775 489.72 315.735C484.63 303.516 479.54 291.296 474.451 279.077C474.349 278.829 474.028 278.592 473.762 278.564C459.765 277.216 445.767 275.867 431.769 274.518L431.971 275.732C445.128 272.041 458.285 268.349 471.442 264.658C471.608 264.613 471.76 264.424 471.771 264.253C472.501 251.947 473.231 239.641 473.961 227.335C473.962 227.312 473.956 227.245 473.95 227.222C473.949 227.218 473.948 227.214 473.947 227.21L473.237 227.418C473.238 227.42 473.239 227.422 473.24 227.424C473.436 227.806 473.945 227.733 473.961 227.32C473.961 227.316 473.962 227.311 473.962 227.306L473.204 227.306C473.206 227.315 473.208 227.324 473.21 227.333C473.213 227.35 473.229 227.399 473.236 227.415C478.525 239.222 483.815 251.028 489.104 262.835C489.14 262.915 489.249 262.994 489.336 263.004C503.348 264.436 517.36 265.869 531.371 267.301L531.331 267.049C523.232 269.268 515.134 271.486 507.036 273.704C501.963 275.094 496.891 276.483 491.819 277.873C491.819 277.873 491.819 277.873 491.819 277.873C496.903 276.515 501.986 275.158 507.07 273.8C515.186 271.632 523.302 269.465 531.419 267.297C531.561 267.259 531.53 267.061 531.378 267.045C517.369 265.528 503.36 264.01 489.351 262.492L489.583 262.662C484.366 250.829 479.15 238.996 473.934 227.163L473.96 227.246C473.958 227.237 473.956 227.228 473.955 227.219C473.866 226.779 473.214 226.779 473.197 227.219C473.197 227.223 473.197 227.228 473.197 227.233L473.918 227.13C473.917 227.128 473.916 227.126 473.915 227.124C473.706 226.717 473.096 226.896 473.205 227.332C473.206 227.336 473.207 227.34 473.208 227.344L473.197 227.23C472.388 239.525 471.579 251.821 470.771 264.116L471.1 263.711C457.913 267.319 444.726 270.928 431.539 274.537C430.854 274.727 431.012 275.679 431.741 275.751C445.737 277.185 459.733 278.62 473.729 280.054L473.041 279.541C478.055 291.785 483.069 304.03 488.083 316.274L488.026 316.074C488.029 316.089 488.031 316.104 488.033 316.119C488.2 317.137 489.681 317.213 489.791 316.209C489.792 316.202 489.792 316.195 489.793 316.187L488.071 316.239C488.072 316.242 488.073 316.246 488.075 316.25C488.412 317.254 489.959 317 489.791 315.968C489.789 315.961 489.788 315.954 489.787 315.946L489.796 316.149C490.391 308.66 490.987 301.17 491.582 293.68C491.997 288.462 492.412 283.243 492.826 278.024ZM490.812 277.721L492.826 278.024L491.819 277.873C491.515 277.954 490.837 277.409 490.812 277.721Z" fill="#9D9898" mask="url(#path-8-outside-1_1123_2610)"/>
</svg>
